<svg width="64" height="64" viewBox="0 0 64 64" fill="none" xmlns="http://www.w3.org/2000/svg">
    <path d="M12.9 1H51.1C53.8516 1 55.0575 1.00651 56.0322 1.23244C59.3788 2.00813 61.9919 4.62123 62.7676 7.96779C62.9935 8.94251 63 10.1484 63 12.9V51.1C63 53.8516 62.9935 55.0575 62.7676 56.0322C61.9919 59.3788 59.3788 61.9919 56.0322 62.7676C55.0575 62.9935 53.8516 63 51.1 63H12.9C10.1484 63 8.94251 62.9935 7.96779 62.7676C4.62123 61.9919 2.00813 59.3788 1.23244 56.0322C1.00651 55.0575 1 53.8516 1 51.1V12.9C1 10.1484 1.00651 8.94251 1.23244 7.96779C2.00813 4.62123 4.62123 2.00813 7.96779 1.23244C8.94251 1.00651 10.1484 1 12.9 1Z" fill="#00FFF0"/>
    <path d="M12.9 1H51.1C53.8516 1 55.0575 1.00651 56.0322 1.23244C59.3788 2.00813 61.9919 4.62123 62.7676 7.96779C62.9935 8.94251 63 10.1484 63 12.9V51.1C63 53.8516 62.9935 55.0575 62.7676 56.0322C61.9919 59.3788 59.3788 61.9919 56.0322 62.7676C55.0575 62.9935 53.8516 63 51.1 63H12.9C10.1484 63 8.94251 62.9935 7.96779 62.7676C4.62123 61.9919 2.00813 59.3788 1.23244 56.0322C1.00651 55.0575 1 53.8516 1 51.1V12.9C1 10.1484 1.00651 8.94251 1.23244 7.96779C2.00813 4.62123 4.62123 2.00813 7.96779 1.23244C8.94251 1.00651 10.1484 1 12.9 1Z" stroke="black" stroke-width="2"/>
    <path d="M12.9 1H51.1C53.8516 1 55.0575 1.00651 56.0322 1.23244C59.3788 2.00813 61.9919 4.62123 62.7676 7.96779C62.9935 8.94251 63 10.1484 63 12.9V51.1C63 53.8516 62.9935 55.0575 62.7676 56.0322C61.9919 59.3788 59.3788 61.9919 56.0322 62.7676C55.0575 62.9935 53.8516 63 51.1 63H12.9C10.1484 63 8.94251 62.9935 7.96779 62.7676C4.62123 61.9919 2.00813 59.3788 1.23244 56.0322C1.00651 55.0575 1 53.8516 1 51.1V12.9C1 10.1484 1.00651 8.94251 1.23244 7.96779C2.00813 4.62123 4.62123 2.00813 7.96779 1.23244C8.94251 1.00651 10.1484 1 12.9 1Z" stroke="black" stroke-opacity="0.2" stroke-width="2"/>
    <line x1="33" y1="13" x2="33" y2="47" stroke="black" stroke-width="2"/>
    <line x1="15" y1="31" x2="49" y2="31" stroke="black" stroke-width="2"/>
</svg>
